HIERARCHY
ROOT Hips
{
	OFFSET 0.000000 0.000000 0.000000
	CHANNELS 6 Xposition Yposition Zposition Xrotation Yrotation Zrotation
	JOINT LeftUpLeg_virtual
	{
		OFFSET 0.000000 0.000000 0.000000
		CHANNELS 3 Xrotation Yrotation Zrotation
		JOINT LeftUpLeg
		{
			OFFSET 15.427100 -6.655098 0.678600
			CHANNELS 3 Xrotation Yrotation Zrotation
			JOINT LeftLeg
			{
				OFFSET 4.081073 -39.591068 13.024000
				CHANNELS 3 Xrotation Yrotation Zrotation
				JOINT LeftFoot
				{
					OFFSET -4.081074 -37.707932 -15.979700
					CHANNELS 3 Xrotation Yrotation Zrotation
					JOINT LeftToeBase
					{
						OFFSET 5.346399 -15.068900 20.645000
						CHANNELS 3 Xrotation Yrotation Zrotation
						JOINT LeftToe_End
						{
							OFFSET 2.754700 0.931300 11.300900
							CHANNELS 3 Xrotation Yrotation Zrotation
							End Site
							{
								OFFSET 0 0 0
							}
						}
					}
				}
			}
		}
	}
	JOINT RightUpLeg_virtual
	{
		OFFSET 0.000000 0.000000 0.000000
		CHANNELS 3 Xrotation Yrotation Zrotation
		JOINT RightUpLeg
		{
			OFFSET -15.569500 -6.655098 0.678600
			CHANNELS 3 Xrotation Yrotation Zrotation
			JOINT RightLeg
			{
				OFFSET -4.081825 -39.591045 13.023800
				CHANNELS 3 Xrotation Yrotation Zrotation
				JOINT RightFoot
				{
					OFFSET 4.081824 -37.707954 -15.979600
					CHANNELS 3 Xrotation Yrotation Zrotation
					JOINT RightToeBase
					{
						OFFSET -5.346400 -15.068900 20.645000
						CHANNELS 3 Xrotation Yrotation Zrotation
						JOINT RightToe_End
						{
							OFFSET -2.754700 0.931300 11.300900
							CHANNELS 3 Xrotation Yrotation Zrotation
							End Site
							{
								OFFSET 0 0 0
							}
						}
					}
				}
			}
		}
	}
	JOINT Spine_virtual
	{
		OFFSET 0.000000 0.000000 0.000000
		CHANNELS 3 Xrotation Yrotation Zrotation
		JOINT Spine
		{
			OFFSET -0.279200 12.230698 -2.892100
			CHANNELS 3 Xrotation Yrotation Zrotation
			JOINT Spine1
			{
				OFFSET -0.232667 10.192268 -1.242267
				CHANNELS 3 Xrotation Yrotation Zrotation
				JOINT Spine1_split
				{
					OFFSET -0.232667 10.192268 -1.242267
					CHANNELS 3 Xrotation Yrotation Zrotation
					JOINT Spine2
					{
						OFFSET -0.232667 10.192268 -1.242267
						CHANNELS 3 Xrotation Yrotation Zrotation
						JOINT Neck_virtual
						{
							OFFSET 0.000000 0.000000 0.000000
							CHANNELS 3 Xrotation Yrotation Zrotation
							JOINT Neck
							{
								OFFSET -0.418800 17.814194 8.416900
								CHANNELS 3 Xrotation Yrotation Zrotation
								JOINT Head
								{
									OFFSET 0.000000 7.031097 3.806800
									CHANNELS 3 Xrotation Yrotation Zrotation
									JOINT HeadTop_End
									{
										OFFSET 0.000000 24.646606 12.978600
										CHANNELS 3 Xrotation Yrotation Zrotation
										End Site
										{
											OFFSET 0 0 0
										}
									}
								}
							}
						}
						JOINT LeftShoulder_virtual
						{
							OFFSET 0.000000 0.000000 0.000000
							CHANNELS 3 Xrotation Yrotation Zrotation
							JOINT LeftShoulder
							{
								OFFSET 8.476499 7.247704 -3.868750
								CHANNELS 3 Xrotation Yrotation Zrotation
								JOINT LeftShoulder_split
								{
									OFFSET 8.476499 7.247704 -3.868750
									CHANNELS 3 Xrotation Yrotation Zrotation
									JOINT LeftArm
									{
										OFFSET 9.308998 -2.777710 0.208600
										CHANNELS 3 Xrotation Yrotation Zrotation
										JOINT LeftForeArm
										{
											OFFSET 29.972298 0.000000 0.000000
											CHANNELS 3 Xrotation Yrotation Zrotation
											JOINT LeftHand
											{
												OFFSET 26.026505 0.000000 0.000000
												CHANNELS 3 Xrotation Yrotation Zrotation
												End Site
												{
													OFFSET 0 0 0
												}
											}
										}
									}
								}
							}
						}
						JOINT RightShoulder_virtual
						{
							OFFSET 0.000000 0.000000 0.000000
							CHANNELS 3 Xrotation Yrotation Zrotation
							JOINT RightShoulder
							{
								OFFSET -7.570500 7.247704 -3.868750
								CHANNELS 3 Xrotation Yrotation Zrotation
								JOINT RightShoulder_split
								{
									OFFSET -7.570500 7.247704 -3.868750
									CHANNELS 3 Xrotation Yrotation Zrotation
									JOINT RightArm
									{
										OFFSET -9.308998 -2.777710 0.208500
										CHANNELS 3 Xrotation Yrotation Zrotation
										JOINT RightForeArm
										{
											OFFSET -29.972300 0.000000 0.000000
											CHANNELS 3 Xrotation Yrotation Zrotation
											JOINT RightHand
											{
												OFFSET -26.026505 0.000000 0.000000
												CHANNELS 3 Xrotation Yrotation Zrotation
												End Site
												{
													OFFSET 0 0 0
												}
											}
										}
									}
								}
							}
						}
					}
				}
			}
		}
	}
}
MOTION
Frames: 8
Frame Time: 0.03333333
0.327545 90.097534 -1.709984 0.000000 0.000000 0.000000 0.698705 0.015384 0.323067 -10.948618 -2.700718 14.852455 19.658502 -0.815710 -3.929416 -8.540819 13.139621 -7.080177 1.261027 -0.134267 -1.358692 0.000000 0.000000 0.000000 1.421911 -1.498093 0.446446 -9.391395 -1.622929 -15.492539 21.312381 3.172326 1.851406 -8.084935 -13.011406 11.366286 -1.933991 0.872010 1.248231 0.000000 0.000000 0.000000 1.875755 -1.664987 0.135857 3.259410 0.361771 1.359906 3.351630 0.102660 0.287951 0.728742 0.029653 0.209126 0.000000 0.000000 0.000000 2.724798 0.164176 0.153038 -2.949178 -0.319678 0.289445 -0.387555 -0.667410 1.151477 0.000000 0.000000 0.000000 2.592670 0.217441 0.275585 1.255933 9.759808 -13.219498 -0.562436 -2.204246 -0.611576 12.442010 -5.780415 -52.676089 -0.309561 -32.205035 0.836541 0.000000 0.000000 0.000000 2.651114 0.108222 0.352507 1.699289 -9.469519 11.590705 1.284826 2.004688 -1.857948 1.441284 18.010944 63.237921 2.065320 25.001605 0.276103 0.000000 0.000000 0.000000 
0.701689 89.958031 -2.145370 0.000000 0.000000 0.000000 0.790151 -0.382721 0.431732 -11.281746 -2.709572 14.497092 19.663471 -0.765361 -4.042067 -8.847823 12.649115 -7.240453 1.055957 -0.141240 -1.294249 0.000000 0.000000 0.000000 1.437712 -1.612282 0.579573 -9.614877 -1.886277 -15.939341 21.317599 3.005310 1.928481 -8.248633 -12.957443 11.282570 -2.032990 0.840664 1.236576 0.000000 0.000000 0.000000 1.918945 -1.881444 0.219269 3.313758 0.333003 1.350577 3.370411 0.057670 0.270154 0.928041 -0.232438 0.153001 0.000000 0.000000 0.000000 2.753201 0.151619 0.130090 -2.942734 -0.205641 0.177844 -0.247948 -0.580659 1.077663 0.000000 0.000000 0.000000 2.654024 0.174849 0.259155 1.241423 9.555803 -13.154244 -0.585270 -2.005761 -0.564248 12.260743 -6.254816 -52.899764 -0.299770 -32.378484 0.864518 0.000000 0.000000 0.000000 2.680823 0.072748 0.366773 1.723480 -9.296072 11.640776 1.335688 2.000308 -1.954205 1.337324 18.010526 63.133269 2.083148 24.809568 0.317500 0.000000 0.000000 0.000000 
1.348452 89.707504 -2.520706 0.000000 0.000000 0.000000 0.819054 -0.868431 0.534132 -12.100917 -2.677577 14.061164 20.510411 -1.038994 -4.216198 -9.093087 11.416237 -7.553866 0.805120 -0.184142 -1.073697 0.000000 0.000000 0.000000 1.395981 -1.866588 0.735392 -9.792356 -1.930226 -16.664982 21.359559 2.953313 1.999282 -8.398474 -12.857689 11.567918 -2.007877 0.857621 1.117644 0.000000 0.000000 0.000000 2.020157 -2.159178 0.343410 3.423453 0.217793 1.285487 3.315220 -0.003541 0.238505 1.026084 -0.298465 0.082280 0.000000 0.000000 0.000000 2.715425 0.105765 0.098191 -2.903140 -0.043377 0.043005 -0.096833 -0.500763 1.086223 0.000000 0.000000 0.000000 2.639064 0.116048 0.236939 1.222712 9.107548 -13.098139 -0.519712 -1.752854 -0.454714 11.998233 -7.042232 -53.214683 -0.242197 -32.412881 0.864448 0.000000 0.000000 0.000000 2.663538 0.007067 0.370405 1.749389 -8.813746 11.934638 1.289388 1.938741 -2.120492 1.141198 18.052779 62.760218 2.043251 24.206079 0.354524 0.000000 0.000000 0.000000 
2.191416 89.383255 -2.679684 0.000000 0.000000 0.000000 0.864199 -1.343995 0.633362 -13.232546 -2.643909 13.615840 21.938469 -1.427713 -4.387292 -9.375866 9.722012 -7.736898 0.782996 -0.251601 -0.778223 0.000000 0.000000 0.000000 1.419046 -2.157546 0.862537 -9.882205 -1.812901 -17.565322 21.375478 3.004513 2.108074 -8.484905 -12.697872 12.115221 -1.864980 0.921776 0.895434 0.000000 0.000000 0.000000 2.173516 -2.446427 0.477786 3.563947 0.026782 1.184468 3.189731 -0.070687 0.200478 0.930138 -0.233082 0.071832 0.000000 0.000000 0.000000 2.629849 0.034214 0.067168 -2.822355 0.140164 -0.091177 0.033663 -0.466553 1.195416 0.000000 0.000000 0.000000 2.550080 0.051304 0.218296 1.200139 8.484406 -13.030999 -0.494897 -1.412854 -0.356537 11.687681 -8.001739 -53.599387 -0.148087 -32.297468 0.836353 0.000000 0.000000 0.000000 2.593102 -0.081833 0.358971 1.770271 -8.071233 12.377851 1.171806 1.860313 -2.328633 0.841251 18.101968 62.191953 1.955854 23.373018 0.389563 0.000000 0.000000 0.000000 
3.123432 89.047958 -2.690968 0.000000 0.000000 0.000000 0.945280 -1.785615 0.724491 -14.443214 -2.631812 13.150349 23.545568 -1.685548 -4.494445 -9.836409 7.935235 -7.519895 0.974920 -0.314815 -0.473024 0.000000 0.000000 0.000000 1.558170 -2.521913 0.936828 -9.925203 -1.649965 -18.520625 21.326251 3.049084 2.301929 -8.512257 -12.565274 12.788226 -1.708923 1.019392 0.630200 0.000000 0.000000 0.000000 2.370167 -2.716526 0.597180 3.723605 -0.224001 1.067021 3.022425 -0.141495 0.164467 0.854057 -0.142179 0.069245 0.000000 0.000000 0.000000 2.505593 -0.053543 0.049930 -2.701422 0.304845 -0.206046 0.107385 -0.506182 1.407511 0.000000 0.000000 0.000000 2.409437 -0.016489 0.211405 1.172568 7.773010 -12.947963 -0.570802 -1.080832 -0.363584 11.351811 -9.034006 -54.033480 -0.051951 -32.113825 0.782930 0.000000 0.000000 0.000000 2.471424 -0.186097 0.333090 1.775506 -7.133711 12.862123 1.085821 1.771822 -2.505956 0.486100 18.135780 61.511782 1.835504 22.464707 0.416018 0.000000 0.000000 0.000000 
4.023912 88.797951 -2.546860 0.000000 0.000000 0.000000 1.105464 -2.166786 0.797221 -15.409035 -2.619918 12.636233 24.920811 -1.676549 -4.481989 -10.589513 6.360643 -6.819794 1.190925 -0.352657 -0.195280 0.000000 0.000000 0.000000 1.765748 -2.797929 0.961798 -10.065951 -1.497744 -19.467378 21.329240 3.029052 2.568332 -8.481346 -12.510051 13.509671 -1.911841 1.118563 0.374477 0.000000 0.000000 0.000000 2.567888 -2.863061 0.671496 3.896923 -0.513458 0.944099 2.842277 -0.217520 0.136181 0.812871 0.052505 0.085530 0.000000 0.000000 0.000000 2.358555 -0.152194 0.050022 -2.552231 0.430887 -0.282331 0.112832 -0.627365 1.724496 0.000000 0.000000 0.000000 2.240752 -0.082242 0.214544 1.140418 7.051576 -12.842689 -0.699039 -0.830915 -0.411094 11.003630 -10.031652 -54.500453 0.038626 -31.937138 0.714676 0.000000 0.000000 0.000000 2.307421 -0.296365 0.294642 1.766380 -6.094637 13.309189 1.038157 1.663314 -2.628564 0.150144 18.146214 60.780911 1.716525 21.537219 0.427908 0.000000 0.000000 0.000000 
4.818947 88.659393 -2.299835 0.000000 0.000000 0.000000 1.328138 -2.546269 0.844324 -16.000135 -2.567117 12.032378 25.890450 -1.424394 -4.339389 -11.521796 5.086742 -5.833853 1.245442 -0.366049 0.035725 0.000000 0.000000 0.000000 2.022742 -2.978261 0.958681 -10.374484 -1.355674 -20.409261 21.665831 2.985251 2.914557 -8.351565 -12.446026 14.199238 -2.909764 1.200241 0.180678 0.000000 0.000000 0.000000 2.723222 -2.817465 0.691500 4.112275 -0.823666 0.822919 2.674648 -0.295071 0.118853 0.840663 0.237249 0.107945 0.000000 0.000000 0.000000 2.197951 -0.253595 0.065737 -2.402521 0.515621 -0.308597 0.085056 -0.819259 2.125585 0.000000 0.000000 0.000000 2.070438 -0.143958 0.221341 1.105852 6.364858 -12.698101 -0.824222 -0.704389 -0.464855 10.675038 -10.904236 -55.007403 0.110693 -31.808427 0.635293 0.000000 0.000000 0.000000 2.121703 -0.401427 0.253168 1.747804 -5.025538 13.698528 0.992548 1.519829 -2.687777 -0.133758 18.113052 60.041031 1.620761 20.619460 0.423847 0.000000 0.000000 0.000000 
5.510651 88.647881 -2.071281 0.000000 0.000000 0.000000 1.512969 -2.887524 0.850425 -16.268349 -2.465051 11.383383 26.547296 -1.045725 -4.104187 -12.349601 4.115905 -4.855777 1.069708 -0.361159 0.186288 0.000000 0.000000 0.000000 2.229748 -3.038024 0.953131 -10.899686 -1.206643 -21.277228 22.618260 2.896830 3.308744 -8.128031 -12.342914 14.767653 -4.772853 1.244982 0.126576 0.000000 0.000000 0.000000 2.808947 -2.672581 0.656850 4.399221 -1.134407 0.717397 2.531146 -0.368831 0.114900 0.927133 0.376303 0.123789 0.000000 0.000000 0.000000 2.022553 -0.348907 0.089590 -2.270199 0.544251 -0.272498 0.074052 -1.054558 2.575128 0.000000 0.000000 0.000000 1.910429 -0.202395 0.226902 1.067500 5.747215 -12.511978 -0.931772 -0.702519 -0.467266 10.373896 -11.652012 -55.569791 0.175462 -31.736358 0.555074 0.000000 0.000000 0.000000 1.944329 -0.487455 0.217492 1.719980 -3.993092 14.043170 0.966662 1.403715 -2.658005 -0.371774 18.031349 59.329564 1.563929 19.784973 0.397108 0.000000 0.000000 0.000000 
